<?xml version="1.0" encoding="UTF-8"?>
<svg id="Capa_1" data-name="Capa 1" xmlns="http://www.w3.org/2000/svg" viewBox="0 0 941.38 941.38">
  <defs>
    <style>
      .cls-1 {
        fill: #fff;
      }
    </style>
  </defs>
  <path class="cls-1" d="m360.49,485.57c4.84,0,9.32-2.57,11.81-6.78l24.88-41.98,32.97,53.22c2.58,4.16,7.08,6.64,11.96,6.54,4.84-.1,9.27-2.78,11.68-7.05l53.07-94.21,71.28,131.97c2.38,4.4,6.9,7.18,11.84,7.27.08,0,.16,0,.24,0,4.85,0,9.36-2.6,11.85-6.84l44.41-75.74h107.08c7.62,0,13.79-6.27,13.79-14.01s-6.17-14.01-13.79-14.01h-114.92c-4.86,0-9.36,2.6-11.85,6.84l-36.08,61.53-71.52-132.41c-2.4-4.44-6.97-7.22-11.96-7.27h-.13c-4.94,0-9.51,2.69-11.97,7.05l-53.88,95.66-32.66-52.73c-2.53-4.08-6.93-6.55-11.67-6.55h-.14c-4.79.05-9.21,2.61-11.68,6.78l-32.41,54.69h-78.37c-7.61,0-13.79,6.27-13.79,14.01s6.17,14.01,13.79,14.01h86.16Z"/>
  <path class="cls-1" d="m777.89,96.75c-7.61,0-13.79,6.27-13.79,14.01v41.33h-40.67c-7.62,0-13.79,6.27-13.79,14.01s6.17,14.01,13.79,14.01h40.67v41.33c0,7.74,6.17,14.01,13.79,14.01s13.79-6.27,13.79-14.01v-41.33h40.67c7.62,0,13.79-6.27,13.79-14.01s-6.17-14.01-13.79-14.01h-40.67v-41.33c0-7.74-6.17-14.01-13.79-14.01Z"/>
  <path class="cls-1" d="m826.53,576.75c67.19-72.93,86.5-183.32,49.55-277.86,39.64-30.43,65.29-78.63,65.29-132.82C941.38,74.48,868,0,777.92,0c-37.09,0-73.31,12.96-102.1,36.35-5.98,4.89-6.92,13.7-2.19,19.69,4.74,6.07,13.41,7.03,19.39,2.22,24.34-19.77,53.63-30.28,84.9-30.28,74.91,0,135.84,61.97,135.84,138.08,0,47.9-24.12,90.25-60.7,114.98-21.57,14.66-47.37,23.17-75.13,23.17-69.74,0-127.38-53.68-135.04-122.53-.07-.15-.07-.3-.07-.52-.07-.67-.15-1.33-.22-2-.44-4.29-.66-8.66-.66-13.1,0-21.54,4.81-42.28,14.21-61.45,3.42-6.89.66-15.33-6.19-18.81-6.78-3.41-15.08-.59-18.51,6.29-11.3,23.1-17.05,47.98-17.05,73.96,0,2.37.07,4.74.15,7.03-34.83,12.66-67.33,33.46-94.59,60.64l-15.23,15.25c-.07-.07-.15-.07-.22-.22l-15.01-15.03c-48.39-48.49-111.93-75.59-174.09-74.33-51.74,1.11-97.58,21.69-132.48,59.53-5.17,5.7-4.88,14.51.73,19.84.07.07.22.15.36.22,5.54,5.03,13.99,4.66,19.09-.89,29.73-32.28,68.72-49.75,112.88-50.72,54.8-1.11,110.99,23.03,154.2,66.34l15.01,15.03c7.29,7.26,13.41,10.88,19.6,10.88s12.17-3.55,19.24-10.66l15.3-15.25c22.88-22.88,49.92-40.65,78.78-52.05,16.11,74.56,81.62,130.53,159.81,130.53,26.74,0,51.96-6.52,74.33-18.14,30.53,83.44,12.97,179.54-45.76,243.43l-197.92,205.82-16.4,3.26c-4.01.81-7.5,1.55-10.64,2.15-20.84,4.29-25.8,5.26-50.14,1.48l-117.91-21.92c-16.11-5.63-14.5-18.66-13.55-22.58,1.38-6,7-15.84,18.95-13.99,0,0,.15,0,.29.07,5.32.67,11,1.41,16.98,2.22,22.3,2.89,47.59,6.22,70.1,8.52,45.91,4.74,71.93-19.77,77.32-46.2,5.54-26.88-9.62-62.71-55.75-77.67-.51-.15-1.09-.3-1.68-.44l-75.93-14.07c-41.25-7.77-73.31-1.85-121.84,7.11-12.83,2.44-27.4,5.03-43.65,7.77l-35.93,6.07-11.08-11.55-34.69-36.06c-64.79-70.56-79.14-181.09-34.91-268.75,3.43-6.81.95-15.03-5.54-18.66-.15-.07-.29-.15-.36-.22-6.85-3.55-15.16-.81-18.58,6.07-49.48,98.1-33.3,221.74,39.28,300.81.15,0,.22.15.29.22l32.36,33.69-60.27,10.07v-1.63c0-10.81-9.4-19.62-20.99-19.62H20.91c-11.51,0-20.91,8.81-20.91,19.62v246.54c0,10.81,9.4,19.55,20.91,19.55h113.39c11.59,0,20.99-8.74,20.99-19.55v-1.78l123.96,34.28,114.49,31.61c26.16,8.29,47.15,11.62,66.39,11.62,30.46,0,56.26-8.44,90.36-19.62,3.06-1.04,6.12-2,9.33-3.11l225.62-73.44c26.16-8.51,44.74-27.69,49.77-51.23,3.79-18.21-1.53-36.2-14.5-48.12-10.49-9.63-35.13-23.54-82.57-8.29l-81.91,16.29,170.09-176.87c.07-.07.15-.22.22-.22ZM127.67,857.2H27.55v-229.74h100.13v229.74Zm618.04-92.69c25.43-8.29,46.06-7.55,56.48,2.07,5.61,5.18,7.8,13.03,6.05,21.47-2.99,13.62-14.57,25.02-31.26,30.43l-225.62,73.52c-3.21,1.04-6.27,2.07-9.33,3.11-54,17.7-81.04,26.58-140.35,7.85-.15-.07-.29-.07-.44-.15l-245.95-67.97v-185.76l100.35-16.73,33.59-5.63c16.47-2.74,31.12-5.48,44.09-7.85,47.15-8.74,75.57-13.99,111.86-7.18l75.06,13.99c29.3,9.77,39.42,30.06,36.36,45.01-3.5,17.18-22.23,26.58-47.59,23.99-22.08-2.3-47.15-5.63-69.38-8.44-5.9-.81-11.59-1.55-16.91-2.29-26.31-3.92-44.89,14.81-49.63,35.46-1.02,4.29-1.38,8.96-1.17,13.7,1.02,17.1,11,34.72,33.89,42.13.58.22,8.23,1.63,8.23,1.63l112.59,20.95h.36c23.25,3.7,33.3,3.41,47.59.81,3.72-.67,18.87-3.78,22.81-4.52l1.02-.22,23.83-4.74s122.94-24.51,123.45-24.65Z"/>
</svg>