<?xml version="1.0" encoding="UTF-8"?>
<svg id="Capa_1" data-name="Capa 1" xmlns="http://www.w3.org/2000/svg" viewBox="0 0 198.96 64.7">
  <defs>
    <style>
      .cls-1, .cls-2 {
        fill: #fff;
      }

      .cls-3 {
        letter-spacing: .05em;
      }

      .cls-4 {
        letter-spacing: .05em;
      }

      .cls-5 {
        letter-spacing: .01em;
      }

      .cls-2 {
        font-family: Exo-SemiBold, Exo;
        font-size: 25.79px;
        font-weight: 600;
      }

      .cls-6 {
        letter-spacing: .04em;
      }
    </style>
  </defs>
  <g>
    <path class="cls-1" d="m24.36,32.82c.33,0,.63-.17.8-.46l1.68-2.84,2.23,3.6c.17.28.48.45.81.44.33,0,.63-.19.79-.48l3.59-6.37,4.82,8.92c.16.3.47.49.8.49,0,0,.01,0,.02,0,.33,0,.63-.18.8-.46l3-5.12h7.24c.51,0,.93-.42.93-.95s-.42-.95-.93-.95h-7.77c-.33,0-.63.18-.8.46l-2.44,4.16-4.83-8.95c-.16-.3-.47-.49-.81-.49h0c-.33,0-.64.18-.81.48l-3.64,6.46-2.21-3.56c-.17-.28-.47-.44-.79-.44h0c-.32,0-.62.18-.79.46l-2.19,3.7h-5.3c-.51,0-.93.42-.93.95s.42.95.93.95h5.82Z"/>
    <path class="cls-1" d="m52.57,6.54c-.51,0-.93.42-.93.95v2.79h-2.75c-.51,0-.93.42-.93.95s.42.95.93.95h2.75v2.79c0,.52.42.95.93.95s.93-.42.93-.95v-2.79h2.75c.51,0,.93-.42.93-.95s-.42-.95-.93-.95h-2.75v-2.79c0-.52-.42-.95-.93-.95Z"/>
    <path class="cls-1" d="m55.86,38.98c4.54-4.93,5.85-12.39,3.35-18.78,2.68-2.06,4.41-5.31,4.41-8.98,0-6.19-4.96-11.22-11.05-11.22-2.51,0-4.95.88-6.9,2.46-.4.33-.47.93-.15,1.33.32.41.91.48,1.31.15,1.64-1.34,3.62-2.05,5.74-2.05,5.06,0,9.18,4.19,9.18,9.33,0,3.24-1.63,6.1-4.1,7.77-1.46.99-3.2,1.57-5.08,1.57-4.71,0-8.61-3.63-9.13-8.28,0,0,0-.02,0-.03,0-.05,0-.09-.01-.14-.03-.29-.04-.59-.04-.89,0-1.46.33-2.86.96-4.15.23-.47.04-1.04-.42-1.27-.46-.23-1.02-.04-1.25.43-.76,1.56-1.15,3.24-1.15,5,0,.16,0,.32,0,.48-2.35.86-4.55,2.26-6.39,4.1l-1.03,1.03s0,0-.01-.02l-1.01-1.02c-3.27-3.28-7.57-5.11-11.77-5.02-3.5.08-6.59,1.47-8.95,4.02-.35.39-.33.98.05,1.34,0,0,.01,0,.02.02.37.34.95.32,1.29-.06,2.01-2.18,4.64-3.36,7.63-3.43,3.7-.07,7.5,1.56,10.42,4.48l1.01,1.02c.49.49.91.74,1.32.74s.82-.24,1.3-.72l1.03-1.03c1.55-1.55,3.37-2.75,5.32-3.52,1.09,5.04,5.52,8.82,10.8,8.82,1.81,0,3.51-.44,5.02-1.23,2.06,5.64.88,12.13-3.09,16.45l-13.38,13.91-1.11.22c-.27.06-.51.11-.72.15-1.41.29-1.74.36-3.39.1l-7.97-1.48c-1.09-.38-.98-1.26-.92-1.53.09-.41.47-1.07,1.28-.95,0,0,0,0,.02,0,.36.05.74.1,1.15.15,1.51.2,3.22.42,4.74.58,3.1.32,4.86-1.34,5.23-3.12.37-1.82-.65-4.24-3.77-5.25-.03,0-.07-.02-.11-.03l-5.13-.95c-2.79-.53-4.95-.13-8.23.48-.87.17-1.85.34-2.95.53l-2.43.41-.75-.78-2.34-2.44c-4.38-4.77-5.35-12.24-2.36-18.16.23-.46.06-1.02-.37-1.26,0,0-.02,0-.02-.02-.46-.24-1.02-.05-1.26.41-3.34,6.63-2.25,14.99,2.65,20.33,0,0,.01,0,.02.01l2.19,2.28-4.07.68v-.11c0-.73-.64-1.33-1.42-1.33H1.41c-.78,0-1.41.6-1.41,1.33v16.66c0,.73.64,1.32,1.41,1.32h7.66c.78,0,1.42-.59,1.42-1.32v-.12l8.38,2.32,7.74,2.14c1.77.56,3.19.79,4.49.79,2.06,0,3.8-.57,6.11-1.33.21-.07.41-.14.63-.21l15.25-4.96c1.77-.58,3.02-1.87,3.36-3.46.26-1.23-.1-2.45-.98-3.25-.71-.65-2.37-1.59-5.58-.56l-5.54,1.1,11.5-11.95s0-.01.01-.01ZM8.63,57.93H1.86v-15.53h6.77v15.53Zm41.77-6.26c1.72-.56,3.11-.51,3.82.14.38.35.53.88.41,1.45-.2.92-.99,1.69-2.11,2.06l-15.25,4.97c-.22.07-.42.14-.63.21-3.65,1.2-5.48,1.8-9.49.53,0,0-.02,0-.03,0l-16.62-4.59v-12.55l6.78-1.13,2.27-.38c1.11-.19,2.1-.37,2.98-.53,3.19-.59,5.11-.95,7.56-.49l5.07.95c1.98.66,2.66,2.03,2.46,3.04-.24,1.16-1.5,1.8-3.22,1.62-1.49-.16-3.19-.38-4.69-.57-.4-.05-.78-.11-1.14-.16-1.78-.27-3.03,1-3.35,2.4-.07.29-.09.61-.08.93.07,1.16.74,2.35,2.29,2.85.04.02.56.11.56.11l7.61,1.42h.02c1.57.25,2.25.23,3.22.06.25-.04,1.28-.26,1.54-.31l.07-.02,1.61-.32s8.31-1.66,8.34-1.67Z"/>
  </g>
  <text class="cls-2" transform="translate(81.37 25.06)"><tspan class="cls-6" x="0" y="0">M</tspan><tspan class="cls-4" x="23.37" y="0">edical</tspan><tspan class="cls-5" x="0" y="32.67">T</tspan><tspan class="cls-3" x="15.19" y="32.67">akecare</tspan></text>
</svg>